<svg width="193" height="103" viewBox="0 0 193 103" fill="none" xmlns="http://www.w3.org/2000/svg">
<g filter="url(#filter0_d_360_6902)">
<mask id="path-1-inside-1_360_6902" fill="white">
<path fill-rule="evenodd" clip-rule="evenodd" d="M168 10.3943C173.523 10.3943 178 14.8714 178 20.3943V72.3943C178 77.9171 173.523 82.3943 168 82.3943H25C19.4772 82.3943 15 77.9171 15 72.3943V55.3674C15.1667 55.3852 15.3351 55.3943 15.5051 55.3943C19.09 55.3943 21.9961 51.3648 21.9961 46.3943C21.9961 41.4237 19.09 37.3943 15.5051 37.3943C15.3351 37.3943 15.1667 37.4033 15 37.4211V20.3943C15 14.8714 19.4772 10.3943 25 10.3943H168Z"/>
</mask>
<path fill-rule="evenodd" clip-rule="evenodd" d="M168 10.3943C173.523 10.3943 178 14.8714 178 20.3943V72.3943C178 77.9171 173.523 82.3943 168 82.3943H25C19.4772 82.3943 15 77.9171 15 72.3943V55.3674C15.1667 55.3852 15.3351 55.3943 15.5051 55.3943C19.09 55.3943 21.9961 51.3648 21.9961 46.3943C21.9961 41.4237 19.09 37.3943 15.5051 37.3943C15.3351 37.3943 15.1667 37.4033 15 37.4211V20.3943C15 14.8714 19.4772 10.3943 25 10.3943H168Z" fill="white"/>
<path d="M15 55.3674H14V54.2551L15.1061 54.3731L15 55.3674ZM15 37.4211L15.1061 38.4155L14 38.5335V37.4211H15ZM177 20.3943C177 15.4237 172.971 11.3943 168 11.3943V9.39429C174.075 9.39429 179 14.3192 179 20.3943H177ZM177 72.3943V20.3943H179V72.3943H177ZM168 81.3943C172.971 81.3943 177 77.3649 177 72.3943H179C179 78.4694 174.075 83.3943 168 83.3943V81.3943ZM25 81.3943H168V83.3943H25V81.3943ZM16 72.3943C16 77.3649 20.0294 81.3943 25 81.3943V83.3943C18.9249 83.3943 14 78.4694 14 72.3943H16ZM16 55.3674V72.3943H14V55.3674H16ZM15.1061 54.3731C15.2377 54.3871 15.3707 54.3943 15.5051 54.3943V56.3943C15.2995 56.3943 15.0957 56.3833 14.8939 56.3618L15.1061 54.3731ZM15.5051 54.3943C16.8951 54.3943 18.2441 53.615 19.2839 52.1733C20.3226 50.733 20.9961 48.693 20.9961 46.3943H22.9961C22.9961 49.0661 22.2165 51.5261 20.906 53.3432C19.5965 55.1589 17.7 56.3943 15.5051 56.3943V54.3943ZM20.9961 46.3943C20.9961 44.0955 20.3226 42.0556 19.2839 40.6153C18.2441 39.1736 16.8951 38.3943 15.5051 38.3943V36.3943C17.7 36.3943 19.5965 37.6297 20.906 39.4454C22.2165 41.2624 22.9961 43.7225 22.9961 46.3943H20.9961ZM15.5051 38.3943C15.3707 38.3943 15.2377 38.4014 15.1061 38.4155L14.8939 36.4268C15.0957 36.4052 15.2995 36.3943 15.5051 36.3943V38.3943ZM16 20.3943V37.4211H14V20.3943H16ZM25 11.3943C20.0294 11.3943 16 15.4237 16 20.3943H14C14 14.3192 18.9249 9.39429 25 9.39429V11.3943ZM168 11.3943H25V9.39429H168V11.3943Z" fill="#31BEF4" mask="url(#path-1-inside-1_360_6902)"/>
</g>
<defs>
<filter id="filter0_d_360_6902" x="0" y="0.394287" width="193" height="102" filterUnits="userSpaceOnUse" color-interpolation-filters="sRGB">
<feFlood flood-opacity="0" result="BackgroundImageFix"/>
<feColorMatrix in="SourceAlpha" type="matrix" values="0 0 0 0 0 0 0 0 0 0 0 0 0 0 0 0 0 0 127 0" result="hardAlpha"/>
<feOffset dy="5"/>
<feGaussianBlur stdDeviation="7.5"/>
<feComposite in2="hardAlpha" operator="out"/>
<feColorMatrix type="matrix" values="0 0 0 0 0.129412 0 0 0 0 0.176471 0 0 0 0 0.333333 0 0 0 0.1 0"/>
<feBlend mode="normal" in2="BackgroundImageFix" result="effect1_dropShadow_360_6902"/>
<feBlend mode="normal" in="SourceGraphic" in2="effect1_dropShadow_360_6902" result="shape"/>
</filter>
</defs>
</svg>
